<svg width="527" height="61" viewBox="0 0 527 61" fill="none" xmlns="http://www.w3.org/2000/svg">
<path d="M513.248 24.7666V55.6602C511.901 56.832 510.099 57.8135 507.843 58.6045C505.587 59.3955 502.848 59.791 499.625 59.791C496.402 59.791 493.663 59.0732 491.407 57.6377C488.859 56.085 487.584 53.8877 487.584 51.0459V22.7451H477.345C475.236 19.7275 474.181 16.4316 474.181 12.8574C474.181 10.4258 474.562 8.31641 475.323 6.5293C476.114 4.71289 477.081 3.30664 478.224 2.31055H523.663C524.513 3.62891 525.216 5.22559 525.773 7.10059C526.329 8.97559 526.608 10.8359 526.608 12.6816C526.608 16.1387 525.846 18.6875 524.322 20.3281C522.799 21.9395 520.748 22.7451 518.17 22.7451H505.294C505.206 22.9502 505.162 23.1699 505.162 23.4043C505.162 23.9316 505.47 24.2832 506.085 24.459C506.73 24.6641 508.107 24.7666 510.216 24.7666H513.248Z" fill="white"/>
<path d="M448.672 43.0039C449.639 42.8281 450.122 42.3447 450.122 41.5537C450.122 40.7334 449.858 39.8252 449.331 38.8291C448.833 37.8037 448.086 36.8369 447.09 35.9287C444.482 33.585 440.952 32.4131 436.499 32.4131C434.302 32.4131 432.251 32.7793 430.347 33.5117C428.325 32.4863 426.714 30.8604 425.513 28.6338C424.311 26.4072 423.711 24.0049 423.711 21.4268C423.711 14.6885 426.523 9.48828 432.148 5.82617C436.982 2.69141 442.944 1.12402 450.034 1.12402C455.308 1.12402 459.746 1.69531 463.35 2.83789C466.953 3.95117 469.897 5.38672 472.183 7.14453C472.856 9.07812 473.193 11.085 473.193 13.165C473.193 15.2451 472.915 17.1348 472.358 18.834C471.802 20.5332 470.996 21.8955 469.941 22.9209C468.945 22.1885 467.143 21.4414 464.536 20.6797C461.929 19.918 459.556 19.5371 457.417 19.5371C455.278 19.5371 453.843 19.6689 453.11 19.9326C452.407 20.1963 452.056 20.6064 452.056 21.1631C452.056 21.4268 452.1 21.6758 452.187 21.9102C453.213 21.6465 454.531 21.5146 456.142 21.5146C461.855 21.5146 466.514 22.8623 470.117 25.5576C474.365 28.7803 476.489 33.6143 476.489 40.0596C476.489 45.7432 474.189 50.46 469.59 54.21C464.609 58.2236 457.915 60.2305 449.507 60.2305C444.878 60.2305 440.864 59.8789 437.466 59.1758C434.067 58.502 430.757 57.3008 427.534 55.5723C425.337 52.3789 424.238 49.1416 424.238 45.8604C424.238 42.5498 425.366 39.8105 427.622 37.6426C429.878 35.4746 432.646 34.3906 435.928 34.3906C439.238 34.3906 441.934 35.0645 444.014 36.4121C446.123 37.7598 447.676 39.957 448.672 43.0039Z" fill="white"/>
<path d="M370.384 50.8701V6.83691C370.384 5.31348 371.6 4.05371 374.032 3.05762C376.493 2.03223 379.379 1.51953 382.689 1.51953C384.564 1.51953 386.322 1.75391 387.963 2.22266C389.633 2.66211 390.907 3.2334 391.786 3.93652C392.987 5.45996 394.086 7.0127 395.082 8.59473C396.078 10.1768 398.319 13.8682 401.805 19.6689C402.128 19.6689 402.421 19.5664 402.684 19.3613C402.948 19.1562 403.08 18.8486 403.08 18.4385C403.08 17.999 402.714 17.1641 401.981 15.9336L397.235 7.75977V5.34277C398.729 4.1123 400.546 3.16016 402.684 2.48633C404.823 1.8125 407.035 1.47559 409.32 1.47559C413.041 1.47559 416.044 2.14941 418.329 3.49707C420.995 5.1084 422.328 7.62793 422.328 11.0557V52.6719C422.328 55.1914 421.127 57.0225 418.724 58.165C416.674 59.1904 413.934 59.7031 410.507 59.7031C408.602 59.7031 406.742 59.498 404.925 59.0879C403.138 58.6777 401.732 58.1504 400.707 57.5059C398.627 54.8398 396.561 51.8516 394.51 48.541L390.028 41.0703C389.178 41.1875 388.754 41.6416 388.754 42.4326C388.754 42.9307 389.178 43.8828 390.028 45.2891L395.521 54.166V56.4951C392.123 58.6924 388.285 59.791 384.008 59.791C379.759 59.791 376.42 59.0146 373.988 57.4619C371.586 55.9092 370.384 53.7119 370.384 50.8701Z" fill="white"/>
<path d="M355.115 1.51953C358.63 1.51953 361.677 2.47168 364.255 4.37598C366.833 6.28027 368.122 8.99023 368.122 12.5059V36.9395C368.122 44.3809 365.852 50.123 361.311 54.166C356.77 58.1797 350.486 60.1865 342.458 60.1865C334.46 60.1865 328.235 58.209 323.782 54.2539C319.241 50.2988 316.97 44.5273 316.97 36.9395V5.60645C320.427 2.85254 324.426 1.47559 328.967 1.47559C332.776 1.47559 335.793 2.48633 338.02 4.50781C340.247 6.5 341.36 9.53223 341.36 13.6045V39.2246C341.682 39.459 342.048 39.5762 342.458 39.5762C342.898 39.5762 343.206 39.4736 343.381 39.2686C343.586 39.0342 343.689 38.6094 343.689 37.9941V13.5605C343.689 11.7148 343.601 10.25 343.425 9.16602C343.249 8.08203 342.898 6.99805 342.371 5.91406C345.886 2.98438 350.134 1.51953 355.115 1.51953Z" fill="white"/>
<path d="M287.638 10.6602V12.6377C286.466 15.0693 285.572 16.9736 284.957 18.3506C284.342 19.6982 284.034 20.6211 284.034 21.1191C284.034 21.9688 284.518 22.3936 285.485 22.3936L294.142 3.40918C296.163 2.09082 298.917 1.43164 302.404 1.43164C305.919 1.43164 308.937 2.39844 311.456 4.33203C314.21 6.5 315.587 9.45898 315.587 13.209C315.587 16.3438 314.518 19.4346 312.379 22.4814C310.24 25.499 307.443 28.1211 303.986 30.3477C302.374 29.4395 300.924 28.9854 299.635 28.9854C298.346 28.9854 297.701 29.6152 297.701 30.875C299.049 31.1387 300.265 31.5195 301.349 32.0176C302.462 32.4863 303.766 33.4092 305.26 34.7861L316.949 45.5527C316.1 55.0449 311.354 59.791 302.711 59.791C299.518 59.791 296.779 58.9707 294.493 57.3301C291.798 55.4258 289.689 52.5254 288.165 48.6289L284.078 38.4336H283.859C282.892 38.4336 282.408 38.8438 282.408 39.6641C282.408 40.1914 282.819 41.4658 283.639 43.4873C284.459 45.6846 285.69 48.6143 287.33 52.2764V55.6602C284.254 58.4141 279.786 59.791 273.927 59.791C270.763 59.791 268.053 59.0732 265.797 57.6377C263.248 56.085 261.974 53.873 261.974 51.002V5.65039C264.991 2.89648 269.576 1.51953 275.729 1.51953C278.922 1.51953 281.632 2.19336 283.859 3.54102C286.378 5.15234 287.638 7.52539 287.638 10.6602Z" fill="white"/>
<path d="M232.29 2.31055H257.646C258.496 3.7168 259.126 5.25488 259.536 6.9248C259.946 8.56543 260.151 10.0449 260.151 11.3633C260.151 14.3223 259.565 16.5488 258.393 18.043C257.251 19.5371 255.64 20.2842 253.56 20.2842H235.85C234.766 20.2842 234.224 20.709 234.224 21.5586V21.9102C234.224 22.0859 234.253 22.2031 234.311 22.2617H255.317C255.845 23.1699 256.299 24.3125 256.68 25.6895C257.031 27.1836 257.207 28.5166 257.207 29.6885C257.207 33.1748 256.562 35.8994 255.273 37.8623H245.737C241.284 37.8623 238.267 38.0381 236.685 38.3896C235.102 38.7119 234.121 38.9902 233.74 39.2246C233.359 39.4883 233.169 39.8252 233.169 40.2354C233.169 40.6455 233.374 40.9678 233.784 41.2021C235.308 40.7041 236.904 40.3525 238.574 40.1475C240.771 39.9424 243.159 39.8398 245.737 39.8398H258.086C259.873 42.3594 260.767 45.3916 260.767 48.9365C260.767 50.9287 260.518 52.833 260.019 54.6494C259.521 56.4658 258.774 57.9307 257.778 59.0439H224.863C221.23 59.0439 218.315 58.165 216.118 56.4072C213.716 54.5322 212.515 51.7783 212.515 48.1455V6.35352C212.515 4.94727 214.126 3.92188 217.349 3.27734C220.571 2.63281 225.552 2.31055 232.29 2.31055Z" fill="white"/>
<path d="M158.309 50.8701V6.83691C158.309 5.31348 159.525 4.05371 161.957 3.05762C164.418 2.03223 167.303 1.51953 170.614 1.51953C172.489 1.51953 174.247 1.75391 175.887 2.22266C177.557 2.66211 178.832 3.2334 179.711 3.93652C180.912 5.45996 182.01 7.0127 183.007 8.59473C184.003 10.1768 186.244 13.8682 189.73 19.6689C190.052 19.6689 190.345 19.5664 190.609 19.3613C190.873 19.1562 191.005 18.8486 191.005 18.4385C191.005 17.999 190.638 17.1641 189.906 15.9336L185.16 7.75977V5.34277C186.654 4.1123 188.47 3.16016 190.609 2.48633C192.748 1.8125 194.96 1.47559 197.245 1.47559C200.966 1.47559 203.968 2.14941 206.254 3.49707C208.92 5.1084 210.253 7.62793 210.253 11.0557V52.6719C210.253 55.1914 209.051 57.0225 206.649 58.165C204.598 59.1904 201.859 59.7031 198.431 59.7031C196.527 59.7031 194.667 59.498 192.85 59.0879C191.063 58.6777 189.657 58.1504 188.632 57.5059C186.551 54.8398 184.486 51.8516 182.435 48.541L177.953 41.0703C177.103 41.1875 176.678 41.6416 176.678 42.4326C176.678 42.9307 177.103 43.8828 177.953 45.2891L183.446 54.166V56.4951C180.048 58.6924 176.21 59.791 171.932 59.791C167.684 59.791 164.344 59.0146 161.913 57.4619C159.51 55.9092 158.309 53.7119 158.309 50.8701Z" fill="white"/>
<path d="M128.625 2.31055H153.982C154.832 3.7168 155.461 5.25488 155.872 6.9248C156.282 8.56543 156.487 10.0449 156.487 11.3633C156.487 14.3223 155.901 16.5488 154.729 18.043C153.586 19.5371 151.975 20.2842 149.895 20.2842H132.185C131.101 20.2842 130.559 20.709 130.559 21.5586V21.9102C130.559 22.0859 130.588 22.2031 130.647 22.2617H151.653C152.18 23.1699 152.634 24.3125 153.015 25.6895C153.367 27.1836 153.542 28.5166 153.542 29.6885C153.542 33.1748 152.898 35.8994 151.609 37.8623H142.073C137.62 37.8623 134.602 38.0381 133.02 38.3896C131.438 38.7119 130.457 38.9902 130.076 39.2246C129.695 39.4883 129.504 39.8252 129.504 40.2354C129.504 40.6455 129.709 40.9678 130.12 41.2021C131.643 40.7041 133.24 40.3525 134.91 40.1475C137.107 39.9424 139.495 39.8398 142.073 39.8398H154.421C156.208 42.3594 157.102 45.3916 157.102 48.9365C157.102 50.9287 156.853 52.833 156.355 54.6494C155.857 56.4658 155.11 57.9307 154.114 59.0439H121.199C117.566 59.0439 114.651 58.165 112.454 56.4072C110.051 54.5322 108.85 51.7783 108.85 48.1455V6.35352C108.85 4.94727 110.461 3.92188 113.684 3.27734C116.907 2.63281 121.887 2.31055 128.625 2.31055Z" fill="white"/>
<path d="M82.1545 41.5098C82.4475 41.5098 82.7112 41.4365 82.9455 41.29V37.291C84.9377 35.9434 87.7209 34.8447 91.2952 33.9951C94.8987 33.1455 98.3996 32.7207 101.798 32.7207C103.351 34.3027 104.64 36.6758 105.665 39.8398C106.72 42.9746 107.277 45.8164 107.335 48.3652C106.749 49.5371 105.753 50.7969 104.347 52.1445C102.97 53.4922 101.3 54.7373 99.3371 55.8799C94.4739 58.751 88.8928 60.1865 82.594 60.1865C73.5705 60.1865 66.4661 57.5645 61.2805 52.3203C55.9192 47.0176 53.2385 39.6787 53.2385 30.3037C53.2385 20.8994 56.1682 13.5166 62.0276 8.15527C64.6057 5.75293 67.6086 3.95117 71.0364 2.75C74.4641 1.51953 78.0676 0.904297 81.8469 0.904297C89.2297 0.904297 95.2795 2.69141 99.9963 6.26562C104.713 9.83984 107.072 14.249 107.072 19.4932C107.072 23.4482 105.856 26.3779 103.424 28.2822C100.992 30.1572 97.6965 31.0947 93.5364 31.0947C91.2512 31.0947 88.9514 30.5381 86.6369 29.4248C84.3225 28.2822 82.9455 27.2129 82.5061 26.2168C82.5061 23.8145 82.55 21.9248 82.6379 20.5479C82.5793 20.5186 82.4768 20.5039 82.3303 20.5039H82.0227C81.5832 20.5039 81.2317 20.6357 80.968 20.8994C80.7336 21.1338 80.5139 21.6465 80.3088 22.4375C80.133 23.2285 80.0452 25.3818 80.0452 28.8975C80.0452 37.3057 80.7483 41.5098 82.1545 41.5098Z" fill="white"/>
<path d="M25.0488 43.0039C26.0156 42.8281 26.499 42.3447 26.499 41.5537C26.499 40.7334 26.2354 39.8252 25.708 38.8291C25.21 37.8037 24.4629 36.8369 23.4668 35.9287C20.8594 33.585 17.3291 32.4131 12.876 32.4131C10.6787 32.4131 8.62793 32.7793 6.72363 33.5117C4.70215 32.4863 3.09082 30.8604 1.88965 28.6338C0.688477 26.4072 0.0878906 24.0049 0.0878906 21.4268C0.0878906 14.6885 2.90039 9.48828 8.52539 5.82617C13.3594 2.69141 19.3213 1.12402 26.4111 1.12402C31.6846 1.12402 36.123 1.69531 39.7266 2.83789C43.3301 3.95117 46.2744 5.38672 48.5596 7.14453C49.2334 9.07812 49.5703 11.085 49.5703 13.165C49.5703 15.2451 49.292 17.1348 48.7354 18.834C48.1787 20.5332 47.373 21.8955 46.3184 22.9209C45.3223 22.1885 43.5205 21.4414 40.9131 20.6797C38.3057 19.918 35.9326 19.5371 33.7939 19.5371C31.6553 19.5371 30.2197 19.6689 29.4873 19.9326C28.7842 20.1963 28.4326 20.6064 28.4326 21.1631C28.4326 21.4268 28.4766 21.6758 28.5645 21.9102C29.5898 21.6465 30.9082 21.5146 32.5195 21.5146C38.2324 21.5146 42.8906 22.8623 46.4941 25.5576C50.7422 28.7803 52.8662 33.6143 52.8662 40.0596C52.8662 45.7432 50.5664 50.46 45.9668 54.21C40.9863 58.2236 34.292 60.2305 25.8838 60.2305C21.2549 60.2305 17.2412 59.8789 13.8428 59.1758C10.4443 58.502 7.13379 57.3008 3.91113 55.5723C1.71387 52.3789 0.615234 49.1416 0.615234 45.8604C0.615234 42.5498 1.74316 39.8105 3.99902 37.6426C6.25488 35.4746 9.02344 34.3906 12.3047 34.3906C15.6152 34.3906 18.3105 35.0645 20.3906 36.4121C22.5 37.7598 24.0527 39.957 25.0488 43.0039Z" fill="white"/>
</svg>
